<?xml version="1.0" encoding="utf-8"?>
<!-- Generator: Adobe Illustrator 20.1.0, SVG Export Plug-In . SVG Version: 6.00 Build 0)  -->
<svg version="1.1" id="Layer_1" xmlns="http://www.w3.org/2000/svg" xmlns:xlink="http://www.w3.org/1999/xlink" x="0px" y="0px"
	 viewBox="0 0 300 200" style="enable-background:new 0 0 300 200;" xml:space="preserve">
<style type="text/css">
	.st0{fill:#FFFFFF;}
	.st1{fill:#0B49AD;}
	.st2{fill:#3265CC;}
	.st3{fill:#074368;}
	.st4{fill:#0E4F77;}
	.st5{fill:#084E66;}
	.st6{fill:#194CCC;}
	.st7{fill:#0E58C4;}
	.st8{fill:#4685D1;}
	.st9{font-family:'Impact';}
	.st10{font-size:48px;}
	.st11{fill:#164C9B;}
</style>
<g>
	<g>
		<polygon class="st0" points="28.2,145 11.1,116.5 56.1,45.9 90.3,45.2 135.8,116.6 120.6,144.2 92.3,99.8 92.2,99.9 73.4,70.2 
			43.5,117 83.2,117 68.9,145 		"/>
		<path d="M90,45.7l45.2,71l-14.6,26.5l-27.4-42.9l-0.9-1.5l-0.1,0.1l-18-28.2l-0.8-1.3l-0.8,1.3l-29,45.6l-1,1.7h1.8h38l-13.8,26
			H28.5l-16.8-27.7l44.7-70L90,45.7 M90.5,44.6l-34.7,0.7l-45.3,70.9L28,145h41.3l14.8-28H44.4l29-45.6L92.3,101l0.1-0.2l28.3,44.3
			l15.8-28.6L90.5,44.6L90.5,44.6z"/>
	</g>
	<polygon class="st1" points="51.4,145 63.3,117.6 10.5,115.5 29.1,145 	"/>
	<polygon class="st2" points="89.8,44.8 56.8,46 87.7,93.3 103,65 	"/>
	<polygon class="st3" points="108.3,125.2 123,97 102.2,63.5 86.8,92.8 	"/>
	<polygon class="st4" points="54.6,46.6 10.8,116 44.7,117.1 73.4,71.5 56.7,44.9 	"/>
	<polygon class="st5" points="62.1,117 47.1,145 68.2,145 83.1,117 	"/>
	<polygon class="st6" points="120,143.7 136.3,116.2 123.2,96.3 106.9,123.9 	"/>
	<polygon class="st7" points="46.2,60.6 18.1,104 53.2,104 63.9,87.5 	"/>
</g>
<text transform="matrix(0.743 0 0 1 145 110)" class="st8 st9 st10">CREATIVE</text>
<text transform="matrix(0.743 0 0 1 153 115.5)" class="st11 st9 st10">CREATIVE</text>
</svg>
