<?xml version="1.0" encoding="utf-8"?>
<!-- Generator: Adobe Illustrator 20.1.0, SVG Export Plug-In . SVG Version: 6.00 Build 0)  -->
<svg version="1.1" id="Layer_1" xmlns="http://www.w3.org/2000/svg" xmlns:xlink="http://www.w3.org/1999/xlink" x="0px" y="0px"
	 viewBox="0 0 300 200" style="enable-background:new 0 0 300 200;" xml:space="preserve">
<style type="text/css">
	.st0{fill:#FFFFFF;}
</style>
<path class="st0" d="M215.9,51.9l13.9-7.9l-18.1-2.8c-4.5-4.6-12-6.9-19.9-5.4c-10.3,1.9-17.7,9.6-17.8,17.9l-18.1,31.4
	c-3.9,0.6-8,1.5-12.1,2.7c-11.3,0.1-23.8-0.9-36.9-3.2C75.2,79.1,49.2,67.3,37.6,55c-2.8,4.8-4.6,10.1-5.3,15.6l14.4,7.3L32,74.2
	c0,0.6-0.1,1.2-0.1,1.8c0,5.7,1.2,11.1,3.3,16.2l0.2,0.1c0.4,0.6,0.7,1.2,1.2,1.9l27.6,10.2l-21.1-1.3c5,6.1,11.6,12.8,19.4,19.4
	l31.2,4.6l-21.4,3.1c4.8,3.5,9.9,6.9,15.2,9.9C76,145.7,61.3,151,43,156c22.3,5.4,44.7,11.2,64.7,10.8c14,2.7,32.4,0.2,50.7-7.9
	c28.3-12.5,46.9-34.4,45.5-51.8c1.2-6,1.9-12.9,1.9-20.3c0-7-0.6-13.5-1.7-19.3c2.7-1.3,5.1-3,7-5l15.3-8.6l-10.5-1.6
	C215.9,52.1,215.8,52,215.9,51.9z"/>
</svg>
