<?xml version="1.0" encoding="utf-8"?>
<!-- Generator: Adobe Illustrator 20.1.0, SVG Export Plug-In . SVG Version: 6.00 Build 0)  -->
<svg version="1.1" id="Layer_1" xmlns="http://www.w3.org/2000/svg" xmlns:xlink="http://www.w3.org/1999/xlink" x="0px" y="0px"
	 viewBox="0 0 300 200" style="enable-background:new 0 0 300 200;" xml:space="preserve">
<style type="text/css">
	.st0{fill:#898585;}
	.st1{fill:#111010;}
	.st2{fill:#F2EBEB;}
</style>
<g>
	<g>
		<path class="st0" d="M225.5,113.4c0-7.3-5.6-13.2-12.5-13.2c-46.4-10.6-92.7-11.2-138.3,0c-6.9,0-12.5,5.9-12.5,13.2
			c-2,12.2-1.6,25.7,0,39.9c0,7.3,5.6,13.2,12.5,13.2c43.9,11.8,90.1,11.2,138.3,0c6.9,0,12.5-5.9,12.5-13.2
			C227.3,140.1,227.2,126.8,225.5,113.4z"/>
	</g>
	<g>
		<path class="st1" d="M91.7,111.7v46.1H87v-46.1H72.5v-4.3h33.8v4.3H91.7z"/>
		<path class="st1" d="M131.1,157.9v-6.1H131c-2.4,4.6-6.2,7-11.4,7c-8.6,0-12.8-5.2-12.8-15.7v-21.2h4.5v20.3
			c0,4.3,0.8,7.5,2.3,9.6c1.5,2.1,3.9,3.1,7,3.1c1.5,0,3-0.3,4.2-0.9c1.3-0.6,2.4-1.4,3.3-2.5c0.9-1.1,1.6-2.4,2.2-3.9
			c0.5-1.5,0.8-3.2,0.8-5.1v-20.6h4.5v36H131.1z"/>
		<path class="st1" d="M151.7,152.1v5.8h-4.5v-53.3h4.5v24.2h0.1c1.3-2.5,3.1-4.4,5.4-5.7c2.2-1.3,4.8-2,7.6-2
			c2.3,0,4.4,0.4,6.2,1.2c1.8,0.8,3.4,2,4.6,3.6s2.2,3.4,2.9,5.6s1,4.6,1,7.3c0,3-0.4,5.7-1.1,8.1s-1.8,4.6-3.3,6.3
			s-3.1,3.1-5.1,4.1s-4.2,1.5-6.7,1.5c-5.1,0-8.9-2.2-11.4-6.6H151.7z M151.7,142.9c0,1.6,0.3,3.2,0.8,4.6s1.3,2.7,2.3,3.8
			s2.2,2,3.6,2.6s2.9,0.9,4.6,0.9c1.8,0,3.4-0.4,4.9-1.1s2.7-1.8,3.7-3.3s1.8-3.1,2.4-5.1s0.8-4.2,0.8-6.7c0-2.1-0.3-4-0.8-5.7
			c-0.5-1.7-1.2-3.1-2.2-4.3s-2.1-2.1-3.4-2.7s-2.9-0.9-4.5-0.9c-1.9,0-3.6,0.3-5.1,1c-1.5,0.7-2.8,1.6-3.8,2.8s-1.9,2.6-2.4,4.2
			c-0.6,1.6-0.8,3.3-0.8,5.1V142.9z"/>
		<path class="st1" d="M190.6,140.7c0,2.2,0.3,4.2,0.9,5.9s1.4,3.2,2.4,4.5s2.3,2.2,3.8,2.8s3.2,1,5.1,1c4.1,0,7.9-1.4,11.5-4.3v4.4
			c-3.4,2.5-7.6,3.7-12.5,3.7c-2.4,0-4.6-0.4-6.6-1.3s-3.6-2.1-5-3.7s-2.4-3.6-3.2-5.9s-1.1-5-1.1-8c0-2.7,0.4-5.2,1.2-7.5
			c0.8-2.3,2-4.3,3.4-6c1.5-1.7,3.2-3,5.2-3.9s4.2-1.4,6.5-1.4c2.3,0,4.4,0.4,6.2,1.2s3.3,2,4.5,3.5c1.2,1.5,2.1,3.3,2.8,5.5
			c0.6,2.2,0.9,4.6,0.9,7.2v2.3H190.6z M212,136.7c-0.1-3.7-1-6.7-2.7-8.7c-1.7-2.1-4.1-3.1-7.1-3.1c-1.5,0-2.9,0.3-4.2,0.8
			c-1.3,0.5-2.4,1.3-3.4,2.3s-1.8,2.3-2.4,3.7c-0.6,1.5-1.1,3.1-1.4,4.9H212z"/>
	</g>
	<g>
		<path class="st2" d="M105.3,67.7v18.9h-4.7V67.8L84.8,36.2h5.3l11.5,23.6c0.1,0.3,0.3,0.7,0.6,1.3c0.2,0.6,0.5,1.3,0.8,2.1h0.1
			c0.1-0.4,0.3-0.9,0.6-1.5c0.3-0.6,0.6-1.2,0.9-1.9l12.1-23.6h5L105.3,67.7z"/>
		<path class="st2" d="M137.1,87.4c-2.7,0-5.1-0.4-7.2-1.3c-2.1-0.9-3.9-2.1-5.4-3.8c-1.5-1.6-2.6-3.6-3.4-5.9
			c-0.8-2.3-1.2-4.8-1.2-7.6c0-3,0.4-5.7,1.3-8.1c0.8-2.4,2-4.4,3.6-6c1.6-1.7,3.4-2.9,5.6-3.8c2.2-0.9,4.7-1.3,7.4-1.3
			c2.6,0,4.9,0.4,7,1.3c2.1,0.9,3.9,2.1,5.3,3.7c1.5,1.6,2.6,3.6,3.3,5.9s1.2,5,1.2,7.9c0,2.8-0.4,5.4-1.2,7.7c-0.8,2.3-2,4.3-3.5,6
			c-1.5,1.7-3.3,3-5.5,3.9S139.8,87.4,137.1,87.4z M137.5,53.6c-2,0-3.8,0.3-5.3,1c-1.6,0.7-3,1.7-4.1,3c-1.1,1.3-2,2.9-2.6,4.8
			c-0.6,1.9-0.9,4-0.9,6.4c0,2.3,0.3,4.3,0.9,6.1c0.6,1.8,1.5,3.4,2.6,4.6c1.1,1.3,2.5,2.3,4.1,3c1.6,0.7,3.4,1,5.3,1
			c2,0,3.8-0.3,5.3-1c1.5-0.7,2.9-1.6,3.9-2.9c1.1-1.3,1.9-2.8,2.4-4.7c0.6-1.9,0.8-4,0.8-6.3c0-4.9-1.1-8.6-3.2-11.1
			S141.5,53.6,137.5,53.6z"/>
		<path class="st2" d="M187.2,86.6v-6.1h-0.1c-2.4,4.6-6.2,7-11.4,7c-8.6,0-12.8-5.2-12.8-15.7V50.6h4.5v20.3c0,4.3,0.8,7.5,2.3,9.6
			c1.5,2.1,3.9,3.1,7,3.1c1.5,0,3-0.3,4.2-0.9s2.4-1.4,3.3-2.5s1.6-2.4,2.2-3.9c0.5-1.5,0.8-3.2,0.8-5.1V50.6h4.5v36H187.2z"/>
	</g>
</g>
</svg>
